<?xml version="1.0" encoding="UTF-8"?>
<svg id="Layer_1" data-name="Layer 1" xmlns="http://www.w3.org/2000/svg" width="150.87mm" height="153.15mm" viewBox="0 0 427.67 434.13">
  <path d="M22.04,367.18c.12,27.96,24.21,50.67,51.85,50.68l305.69.03c17.29,0,31.94-15.77,31.95-32.66l.05-286.14c0-20.35-16.54-35.96-36.33-35.99l-37.95-.06-.45,10.4c-.66,15.17-13.52,25.69-28.75,24.78-12.67-.75-25.09-9.89-25.78-23.37-.82-16.1-.64-31.81-.44-47.87.2-15.75,13.09-26.83,28.39-26.43,14.07.37,26.31,10.4,26.59,24.85l.43,22.11,42.12.25c25.62.15,48.28,22.72,48.26,49.76l-.24,290.25c-.02,29.01-27,46.39-53.29,46.36l-303.57-.38c-35.21-2.82-64.53-30.47-64.62-66.3l-.37-149.57c-.01-4.9,3.59-8.06,7.51-8.29s8.26,2.57,8.28,7.38l.66,150.19v.02ZM321.06,70.43l-.13-43.27c-.02-6.38-5.75-10.76-11.21-10.91-4.98-.14-11.45,3.49-11.5,9.64l-.34,44c-.06,7.19,4.76,12.42,11.85,12.57,5.78.12,11.35-4.7,11.33-12.03Z" fill="#feffff"/>
  <path d="M26.29,146.88l358.46.05c4.68,0,7.44,4.22,7.69,7.45.3,3.85-2.72,8.4-7.67,8.4l-355.07.12c-15.7,0-29.09-9.6-29.37-26.24-.23-13.42-.66-27.18.1-40.65,1.64-29.03,25.72-49.14,53.95-48.99l37.1.2.07-20.33C91.61,11.28,103.91-.13,119.45,0c15.22.12,27.35,11.41,27.37,27l.06,43.89c0,9.63-5.26,18.49-13.39,23.09-14.79,8.37-33.72,2.6-40.14-13.2-2.26-5.57-1.7-11.54-1.86-18l-41.02.28c-18.61.13-33.94,16.31-33.99,34.65l-.11,38.26c-.01,4.42,3.51,10.91,9.91,10.91h.01ZM130.65,70.46V27.94c0-6.74-4.53-11.68-10.76-12.16-4.98-.38-12.02,2.85-12.04,9.35l-.1,46.71c0,6.43,6.74,10.55,12.11,10.04s10.78-4.72,10.78-11.43h0Z" fill="#feffff"/>
  <path d="M263.73,63.02l-100.22-.12c-4.37,0-7.44-4.24-7.4-7.51.05-4.34,3.45-7.97,8.3-7.97l99.83-.02c4.9,0,8.19,3.81,8.12,7.95-.07,4.39-3.16,7.66-8.63,7.66h0Z" fill="#feffff"/>
  <path d="M259.24,371.2c-5.93,3.92-13.28,3.72-18.54-.31-5.14-3.94-7.44-11.12-4.81-17.83,2.32-5.91,8.05-10.05,15.52-9.76,6.79.26,12.08,4.92,14,10.82,2.02,6.23-.14,13.09-6.17,17.08h0Z" fill="#feffff"/>
  <path d="M254.38,239.28c-9.94,2.63-18.41-4.17-19.46-13.11s6.67-17.43,16.35-16.91c7.89.42,13.79,5.94,14.73,13.4.88,7.02-3.6,14.5-11.61,16.62h-.01Z" fill="#feffff"/>
  <path d="M249.77,306.73c-9.55-.08-15.54-8.39-14.75-16.57.82-8.47,8.34-14.52,17.32-13.75,8.37.72,13.91,7.74,13.73,15.69s-6.99,14.71-16.31,14.63h0Z" fill="#feffff"/>
  <path d="M178.77,239.65c-9.78,1.35-17.57-5.92-17.83-14.42-.27-8.97,7.03-16.28,16.5-15.98,8.07.26,14.01,6.41,14.6,14.24.54,7.16-4.82,14.99-13.27,16.15h0Z" fill="#feffff"/>
  <path d="M322.83,239.8c-8.06-.79-13.57-6.91-14.12-13.57-.64-7.7,4-14.5,11.8-16.51,9.24-2.37,18.73,4.23,19.36,13.63.59,8.95-6.72,17.46-17.03,16.45h0Z" fill="#feffff"/>
  <path d="M175.87,306.76c-9.16-.25-15.2-7.85-14.93-15.64.31-8.61,7.46-15.16,16.48-14.81,9.02.35,14.9,7.51,14.57,15.61-.34,8.13-6.81,15.09-16.12,14.84h0Z" fill="#feffff"/>
  <path d="M110.75,371.56c-5.68,3.69-12.5,3.1-17.71-.83-4.68-3.53-7.25-10.11-5.17-16.93,1.59-5.2,6.88-9.97,13.58-10.39,7.32-.46,13.39,3.48,15.73,9.89,2.34,6.41.25,13.92-6.42,18.26h0Z" fill="#feffff"/>
  <path d="M191.52,355.05c1.9,8.96-3.4,16.33-10.91,18.37-7.68,2.09-15.69-1.75-18.55-9.12-2.84-7.31.13-16.1,7.59-19.42,8.96-3.98,19.67-.16,21.87,10.17Z" fill="#feffff"/>
  <path d="M102.9,239.77c-9.47.2-16.04-7.5-15.84-15.59.21-8.49,7.48-15.26,16.4-14.82,8.45.41,14.55,6.93,14.6,15.01.05,7.76-5.97,15.22-15.16,15.41h0Z" fill="#feffff"/>
  <path d="M101.12,306.61c-9.11-.95-14.73-8.62-14-16.49s7.74-14.18,16.39-13.81,14.93,7.48,14.61,15.66c-.33,8.38-7.66,15.61-17,14.63h0Z" fill="#feffff"/>
  <path d="M322.83,306.74c-8.06-.79-13.57-6.91-14.12-13.57-.64-7.7,4-14.5,11.8-16.51,9.24-2.37,18.73,4.23,19.36,13.63.59,8.95-6.72,17.46-17.03,16.45h0Z" fill="#feffff"/>
</svg>